<?xml version="1.0" encoding="UTF-8" standalone="no"?>
<svg
   viewBox="0 0 10 10"
   version="1.1"
   id="svg1337"
   sodipodi:docname="download.svg"
   inkscape:version="1.2.1 (9c6d41e4, 2022-07-14)"
   width="10"
   height="10"
   inkscape:export-filename="download.png"
   inkscape:export-xdpi="96"
   inkscape:export-ydpi="96"
   xmlns:inkscape="http://www.inkscape.org/namespaces/inkscape"
   xmlns:sodipodi="http://sodipodi.sourceforge.net/DTD/sodipodi-0.dtd"
   xmlns="http://www.w3.org/2000/svg"
   xmlns:svg="http://www.w3.org/2000/svg">
  <defs
     id="defs1341" />
  <sodipodi:namedview
     id="namedview1339"
     pagecolor="#ffffff"
     bordercolor="#666666"
     borderopacity="1.0"
     inkscape:showpageshadow="2"
     inkscape:pageopacity="0.0"
     inkscape:pagecheckerboard="0"
     inkscape:deskcolor="#d1d1d1"
     showgrid="false"
     inkscape:zoom="17.461841"
     inkscape:cx="5.497702"
     inkscape:cy="11.510814"
     inkscape:window-width="1440"
     inkscape:window-height="900"
     inkscape:window-x="0"
     inkscape:window-y="0"
     inkscape:window-maximized="0"
     inkscape:current-layer="svg1337" />
  <!--! Font Awesome Free 6.2.0 by @fontawesome - https://fontawesome.com License - https://fontawesome.com/license/free (Icons: CC BY 4.0, Fonts: SIL OFL 1.1, Code: MIT License) Copyright 2022 Fonticons, Inc. -->
  <path
     d="m 5.6171085,0.63551162 c 0,-0.34344783 -0.2778873,-0.62091876 -0.6218455,-0.62091876 -0.343963,0 -0.6218503,0.27747093 -0.6218503,0.62091876 V 5.3447728 L 2.9470477,3.9205446 c -0.2429077,-0.2425438 -0.6373935,-0.2425438 -0.8803013,0 -0.2429127,0.2425488 -0.2429127,0.6364436 0,0.8789874 l 2.4873914,2.483665 c 0.2429077,0.2425437 0.6373936,0.2425437 0.8803012,0 L 7.9218354,4.799532 c 0.2429079,-0.2425438 0.2429079,-0.6364386 0,-0.8789874 -0.2429126,-0.2425438 -0.6373984,-0.2425438 -0.8803062,0 L 5.6171085,5.3447728 Z M 1.2641709,6.8446739 c -0.68597701,0 -1.24369566,0.5568881 -1.24369566,1.2418324 V 8.707425 c 0,0.6849494 0.55771865,1.2418326 1.24369566,1.2418326 h 7.4621792 c 0.685977,0 1.2436957,-0.5568832 1.2436957,-1.2418326 V 8.0865063 c 0,-0.6849443 -0.5577187,-1.2418324 -1.2436957,-1.2418324 H 6.7539263 L 5.8736201,7.7236612 c -0.4858154,0.4850876 -1.2728428,0.4850876 -1.7586633,0 L 3.2365947,6.8446739 Z m 7.1512566,2.0179796 c -0.2584558,0 -0.4663891,-0.2076167 -0.4663891,-0.4656853 0,-0.2580686 0.2079333,-0.4656904 0.4663891,-0.4656904 0.2584558,0 0.4663839,0.2076218 0.4663839,0.4656904 0,0.2580686 -0.2079281,0.4656853 -0.4663839,0.4656853 z"
     id="path1335"
     style="fill:#ffffff;stroke-width:0.0194182" />
</svg>
