<?xml version="1.0" encoding="UTF-8" standalone="no"?>
<svg
   viewBox="0 0 10 10"
   version="1.1"
   id="svg1716"
   sodipodi:docname="rotate-button.svg"
   inkscape:version="1.2.1 (9c6d41e4, 2022-07-14)"
   width="10"
   height="10"
   xmlns:inkscape="http://www.inkscape.org/namespaces/inkscape"
   xmlns:sodipodi="http://sodipodi.sourceforge.net/DTD/sodipodi-0.dtd"
   xmlns="http://www.w3.org/2000/svg"
   xmlns:svg="http://www.w3.org/2000/svg">
  <defs
     id="defs1720" />
  <sodipodi:namedview
     id="namedview1718"
     pagecolor="#ffffff"
     bordercolor="#666666"
     borderopacity="1.0"
     inkscape:showpageshadow="2"
     inkscape:pageopacity="0.0"
     inkscape:pagecheckerboard="0"
     inkscape:deskcolor="#d1d1d1"
     showgrid="false"
     inkscape:zoom="7.5907755"
     inkscape:cx="8.563025"
     inkscape:cy="18.838655"
     inkscape:window-width="1440"
     inkscape:window-height="754"
     inkscape:window-x="0"
     inkscape:window-y="25"
     inkscape:window-maximized="1"
     inkscape:current-layer="svg1716" />
  <!--! Font Awesome Free 6.2.0 by @fontawesome - https://fontawesome.com License - https://fontawesome.com/license/free (Icons: CC BY 4.0, Fonts: SIL OFL 1.1, Code: MIT License) Copyright 2022 Fonticons, Inc. -->
  <path
     d="M 2.6608524,2.5257728 C 3.9413829,1.1486038 6.0104083,1.141961 7.2991732,2.5036209 L 6.4509766,3.4136186 C 6.3089239,3.5663915 6.2677496,3.794442 6.3439224,3.9937116 6.4200953,4.1929813 6.6012637,4.3213983 6.8009595,4.3213983 h 2.4601849 c 0,0 0,0 0,0 h 0.1749903 c 0.2738124,0 0.4940965,-0.2369084 0.4940965,-0.5313839 V 0.95596585 c 0,-0.21477042 -0.1194057,-0.40960972 -0.3046913,-0.49153278 C 9.4402543,0.38251279 9.2282045,0.42679432 9.0861518,0.57956728 L 8.2297185,1.5006326 C 6.4262711,-0.41456313 3.5214006,-0.40792311 1.7282462,1.5227844 1.2259153,2.0630263 0.86357845,2.6984741 0.64123572,3.3782033 0.51977129,3.7479591 0.70093978,4.150926 1.0426883,4.2815554 1.3844391,4.4121876 1.7611861,4.2173483 1.8826505,3.8498077 2.0411743,3.3671329 2.2985156,2.9132416 2.6608524,2.5257728 Z M 0.04832169,6.269819 v 0.1682737 0.015487 2.6502798 c 0,0.2147676 0.11940576,0.4096097 0.30469137,0.49153 0.18528798,0.081923 0.39733543,0.037641 0.53938812,-0.1151315 L 1.7488346,8.5591898 C 3.5522819,10.474388 6.4571524,10.467746 8.2503068,8.537038 8.7526377,7.9967989 9.1170332,7.3613511 9.3393759,6.6838342 9.4608402,6.3140812 9.2796718,5.9111143 8.9379233,5.7804821 8.5961725,5.6498499 8.2194255,5.8446892 8.0979611,6.2122326 7.9394373,6.6949046 7.682096,7.1487959 7.3197592,7.5362648 6.0392287,8.9134366 3.9702056,8.9200766 2.6814384,7.5584167 L 3.5275764,6.6462065 C 3.6696291,6.4934336 3.7108034,6.2653804 3.6346306,6.0661107 3.5584577,5.8668438 3.3772893,5.738424 3.1775935,5.738424 H 0.71534996 0.70093978 0.54241823 c -0.2738124,0 -0.49409654,0.2369084 -0.49409654,0.531384 z"
     id="path1714"
     style="fill:#ffffff;stroke-width:0.02135" />
</svg>
