<?xml version="1.0" encoding="UTF-8" standalone="no"?>
<svg
   viewBox="0 0 10 10"
   version="1.1"
   id="svg1716"
   sodipodi:docname="rotate.svg"
   inkscape:version="1.2.1 (9c6d41e4, 2022-07-14)"
   width="10"
   height="10"
   xmlns:inkscape="http://www.inkscape.org/namespaces/inkscape"
   xmlns:sodipodi="http://sodipodi.sourceforge.net/DTD/sodipodi-0.dtd"
   xmlns="http://www.w3.org/2000/svg"
   xmlns:svg="http://www.w3.org/2000/svg">
  <defs
     id="defs1720" />
  <sodipodi:namedview
     id="namedview1718"
     pagecolor="#ffffff"
     bordercolor="#666666"
     borderopacity="1.0"
     inkscape:showpageshadow="2"
     inkscape:pageopacity="0.0"
     inkscape:pagecheckerboard="0"
     inkscape:deskcolor="#d1d1d1"
     showgrid="false"
     inkscape:zoom="19.49878"
     inkscape:cx="5.4875228"
     inkscape:cy="9.9493404"
     inkscape:window-width="1440"
     inkscape:window-height="900"
     inkscape:window-x="0"
     inkscape:window-y="0"
     inkscape:window-maximized="0"
     inkscape:current-layer="svg1716" />
  <!--! Font Awesome Free 6.2.0 by @fontawesome - https://fontawesome.com License - https://fontawesome.com/license/free (Icons: CC BY 4.0, Fonts: SIL OFL 1.1, Code: MIT License) Copyright 2022 Fonticons, Inc. -->
  <path
     d="M 2.6437591,2.4937682 C 3.93503,1.1154503 6.02141,1.1088054 7.3209863,2.4716075 L 6.4656739,3.3823616 C 6.3224293,3.5352603 6.280908,3.763502 6.3577221,3.9629382 6.4345331,4.1623743 6.6172209,4.2908963 6.8185939,4.2908963 h 2.4808174 c 0,0 0,0 0,0 h 0.17646 c 0.2761095,0 0.4982397,-0.237106 0.4982397,-0.5318264 V 0.92266571 C 9.974111,0.70771709 9.8537048,0.51271641 9.6668644,0.4307252 9.4800239,0.34873401 9.266196,0.3930554 9.1229513,0.54595409 L 8.2593368,1.4677852 C 6.4407609,-0.44900394 3.5115265,-0.44235573 1.7033336,1.4899459 1.1967887,2.0306366 0.83141363,2.6666115 0.60720535,3.3469045 0.48472101,3.7169679 0.6674085,4.120269 1.0120232,4.2510104 1.3566411,4.3817518 1.736549,4.1867477 1.8590333,3.8189004 2.0188825,3.3358275 2.2783841,2.8815568 2.6437591,2.4937682 Z M 0.00931658,6.2409267 v 0.1684109 0.015514 2.6524839 c 0,0.2149453 0.12040959,0.4099495 0.30724983,0.491937 0.18683701,0.081991 0.40066513,0.037675 0.54390981,-0.1152286 L 1.7240908,8.5322123 C 3.5426671,10.449001 6.4719011,10.442357 8.2800971,8.5100507 8.7866391,7.9693631 9.1540921,7.3333881 9.3783005,6.6553079 9.5007849,6.2852444 9.318094,5.8819434 8.9734795,5.751202 8.6288643,5.620464 8.2489569,5.8154646 8.1264726,6.1833121 7.9666202,6.6663881 7.7071215,7.1206553 7.3417435,7.5084475 6.0504726,8.8867621 3.9640958,8.89341 2.6645194,7.5306091 L 3.517754,6.6176412 C 3.6609987,6.4647391 3.7025195,6.2364975 3.6257054,6.0370649 3.5488946,5.8376287 3.366207,5.7091034 3.1648338,5.7091034 H 0.68194147 0.6674085 0.50755614 c -0.27610602,0 -0.49823956,0.237106 -0.49823956,0.5318264 z"
     id="path1714"
     style="fill:#008000;stroke-width:0.0214483" />
</svg>
